<?xml version="1.0" encoding="UTF-8" standalone="no"?>
<svg
   xmlns:dc="http://purl.org/dc/elements/1.1/"
   xmlns:cc="http://creativecommons.org/ns#"
   xmlns:rdf="http://www.w3.org/1999/02/22-rdf-syntax-ns#"
   xmlns:svg="http://www.w3.org/2000/svg"
   xmlns="http://www.w3.org/2000/svg"
   width="689.42603"
   height="470.6937"
   viewBox="0 0 182.41065 124.53772"
   version="1.1"
   id="svg8">
  <defs
     id="defs2" />
  <metadata
     id="metadata5">
    <rdf:RDF>
      <cc:Work
         rdf:about="">
        <dc:format>image/svg+xml</dc:format>
        <dc:type
           rdf:resource="http://purl.org/dc/dcmitype/StillImage" />
        <dc:title></dc:title>
      </cc:Work>
    </rdf:RDF>
  </metadata>
  <path
     id="rect883-8"
     d="m 62.871838,75.226816 c 0,3.970311 4.02275,7.167293 9.019298,7.167293 h 99.913474 c 4.99656,0 9.01852,-3.196982 9.01852,-7.167293 V 34.298411 h -26.08195 v 2.70279 h -15.05869 v -2.70279 h -35.21314 v 2.70279 H 89.410658 v -2.70279 H 62.893096 c 0,0 -0.02126,-25.0430999 -0.02126,40.928405 z"
     style="opacity:1;fill:#ffffff;fill-opacity:1;stroke:#f8c300;stroke-width:3.13393;stroke-linecap:round;stroke-linejoin:round;stroke-miterlimit:4;stroke-dasharray:none;stroke-dashoffset:0;stroke-opacity:1;paint-order:fill markers stroke" />
  <path
     style="opacity:1;fill:#f8c300;fill-opacity:1;stroke:none;stroke-width:1.56448;stroke-linecap:round;stroke-linejoin:round;stroke-miterlimit:4;stroke-dasharray:none;stroke-dashoffset:0;stroke-opacity:1"
     d="m 101.40111,0 c -0.54815,0 -1.08218,0.06743 -1.598398,0.196459 -0.516213,0.12923 -1.015393,0.319696 -1.489243,0.56514 C 97.365801,1.252455 96.513694,1.963691 95.79825,2.842661 95.082821,3.721615 94.504773,4.769243 94.105254,5.933536 93.70572,7.097845 93.484338,8.3792846 93.484338,9.7261736 V 12.59471 H 70.604749 c -5.128379,0 -9.257256,3.196182 -9.257256,7.166494 0,0 0.256172,7.377426 0.02182,7.466463 h 27.217164 v -2.711694 h 15.455983 v 2.711694 h 36.14215 v -2.711694 h 15.45597 v 2.711694 h 26.77007 v -7.466463 c 0,-3.970312 -4.12806,-7.166494 -9.25646,-7.166494 H 150.2746 V 9.7261736 c 0,-1.346889 -0.21999,-2.6283286 -0.6193,-3.7926376 -0.39946,-1.164293 -0.97771,-2.211921 -1.69298,-3.090875 -0.71529,-0.87897 -1.56688,-1.590206 -2.51443,-2.081062 -0.47378,-0.245444 -0.97223,-0.436004 -1.48843,-0.56514 C 143.44323,0.067228 142.9076,0 142.35943,0 Z m 7.60228,4.449953 h 25.75296 c 0.34465,0 0.68122,0.04256 1.00579,0.123754 0.32453,0.0812 0.63753,0.200621 0.93541,0.35493 0.59577,0.3086354 1.13089,0.7555127 1.5806,1.3081523 0.44975,0.5526396 0.81365,1.2115891 1.06478,1.9436113 0.25114,0.732045 0.38971,1.537403 0.38971,2.3842524 v 2.03012 h -35.70715 v -2.03012 c 0,-0.8468494 0.13924,-1.6522074 0.39051,-2.3842524 0.2512,-0.7320222 0.61498,-1.3909717 1.06479,-1.9436113 0.44983,-0.5526396 0.98637,-0.9995169 1.58221,-1.3081523 0.29793,-0.154419 0.61087,-0.273746 0.93543,-0.354931 0.32458,-0.0812 0.66033,-0.123755 1.00496,-0.123753 z"
     id="rect883" />
  <g
     style="opacity:1"
     id="g1438">
    <path
       id="path1440"
       d="m 54.462891,14.949219 c -0.376115,-0.04999 -0.870409,-0.0039 -1.509766,0.310547 -1.478942,0.726729 -1.378717,1.36275 -1.550781,1.796875 -0.172064,0.434125 -0.275832,0.834533 -0.376953,1.289062 -0.202244,0.909058 -0.36148,2.007746 -0.486329,3.292969 -0.11451,1.178819 -0.198449,1.593147 -0.279296,2.048828 -0.342462,0.0057 -0.642227,0.01425 -1.09961,0.0098 -1.436329,-0.01408 -3.345462,-0.0796 -5.333984,-0.195313 -8.497646,-0.493432 -13.37818,-0.10804 -18.134766,1.611328 -7.648697,2.764769 -12.24764,9.32842 -13.242187,18.375 -0.231919,2.109533 -0.06026,4.801271 0.267578,7.439453 0.140629,1.13166 0.297362,2.157918 0.484375,3.148438 l -0.669922,0.03906 1.755859,3.572266 c 0.226257,0.46045 0.888429,1.464864 2.261719,1.591797 0.311511,0.02879 0.479098,-0.09638 0.726563,-0.144531 L 20.792969,58.925781 19.75,56.802734 c 0.01888,-0.05432 0.07268,-0.118629 0.09375,-0.175781 0.396032,-1.073959 0.7799,-2.518345 1.240234,-4.511719 0.934898,-4.048356 2.526794,-6.512432 5.025391,-8.160156 2.498597,-1.647724 6.192807,-2.524756 11.484375,-2.414062 3.690244,0.07719 6.832226,0.282346 9.005859,0.554687 0.810302,0.101525 1.308385,0.211995 1.796875,0.316406 -0.0042,0.713616 -0.03922,1.607504 -0.126953,2.527344 -0.118855,1.247811 -0.171922,2.334549 -0.144531,3.251953 0.01369,0.458702 0.04219,0.867309 0.128906,1.322266 0.08672,0.454957 -0.131072,1.050154 1.173828,2.042969 1.134092,0.862977 1.901332,0.564848 2.261719,0.486328 0.360388,-0.07852 0.5418,-0.166104 0.712891,-0.244141 0.342182,-0.156073 0.595401,-0.30772 0.892578,-0.49414 0.594354,-0.372842 1.300777,-0.871115 2.162109,-1.507813 1.722664,-1.273395 4.023067,-3.087046 6.65625,-5.253906 L 73.0625,35.533203 64.052734,24.583984 c -2.166864,-2.633186 -4.07613,-4.854367 -5.521484,-6.435546 -0.722677,-0.79059 -1.32053,-1.414248 -1.832031,-1.894532 -0.255751,-0.240142 -0.475445,-0.441117 -0.78125,-0.660156 -0.152903,-0.10952 -0.313697,-0.22858 -0.652344,-0.375 -0.169323,-0.07321 -0.42662,-0.219543 -0.802734,-0.269531 z m 1.859375,4.05664 c 4.04e-4,-0.001 0.03733,0.10971 -0.08203,0.298829 0.03421,-0.12415 0.08156,-0.297642 0.08203,-0.298829 z m -0.636719,3.947266 c 1.23681,1.393603 2.577374,2.92358 4.28125,4.994141 l 5.646484,6.863281 -6.861328,5.646484 c -2.073353,1.706173 -3.687017,2.951975 -5.169922,4.082031 0.05639,-0.807321 0.116828,-1.63321 0.115235,-2.316406 -0.0011,-0.474953 -0.01453,-0.904459 -0.05273,-1.314453 -0.0382,-0.409993 0.06116,-0.649787 -0.392578,-1.546875 -0.52232,-1.033739 -1.130837,-1.266059 -1.574219,-1.484375 C 51.23344,37.658188 50.83248,37.529181 50.392578,37.410156 49.512774,37.172107 48.490238,37.000117 47.257812,36.845703 44.792961,36.536875 41.523479,36.329908 37.703125,36.25 c -5.918052,-0.123799 -10.754883,0.813492 -14.505859,3.287109 -2.35379,1.552229 -4.106578,3.746377 -5.41211,6.347657 3.46e-4,-0.555966 -0.115519,-1.460453 -0.07617,-1.81836 0.84863,-7.719287 3.844585,-11.830641 9.78125,-13.976562 3.94372,-1.425541 7.794204,-1.784596 16.027344,-1.306641 2.06637,0.120239 4.039902,0.189864 5.591797,0.205078 0.775948,0.0076 1.443234,0.0033 1.996094,-0.01953 0.27643,-0.01142 0.521113,-0.02583 0.769531,-0.05273 0.248418,-0.02691 0.401034,0.01194 1.019531,-0.234375 0.989244,-0.394177 2.043197,-1.721999 2.341797,-2.75 0.23509,-0.809355 0.329971,-1.835643 0.449219,-2.978516 z m -2.255859,25.261719 c 0.08056,0.206675 0.02147,0.308541 0.02148,0.308594 1.2e-5,6.2e-5 -0.01121,-0.177528 -0.02148,-0.308594 z"
       style="color:#000000;font-style:normal;font-variant:normal;font-weight:normal;font-stretch:normal;font-size:medium;line-height:normal;font-family:sans-serif;font-variant-ligatures:normal;font-variant-position:normal;font-variant-caps:normal;font-variant-numeric:normal;font-variant-alternates:normal;font-variant-east-asian:normal;font-feature-settings:normal;font-variation-settings:normal;text-indent:0;text-align:start;text-decoration:none;text-decoration-line:none;text-decoration-style:solid;text-decoration-color:#000000;letter-spacing:normal;word-spacing:normal;text-transform:none;writing-mode:lr-tb;direction:ltr;text-orientation:mixed;dominant-baseline:auto;baseline-shift:baseline;text-anchor:start;white-space:normal;shape-padding:0;shape-margin:0;inline-size:0;clip-rule:nonzero;display:inline;overflow:visible;visibility:visible;isolation:auto;mix-blend-mode:normal;color-interpolation:sRGB;color-interpolation-filters:linearRGB;solid-color:#000000;solid-opacity:1;vector-effect:none;fill:#ffffff;fill-opacity:1;fill-rule:nonzero;stroke:none;stroke-width:5.29167;stroke-linecap:butt;stroke-linejoin:miter;stroke-miterlimit:4;stroke-dasharray:none;stroke-dashoffset:0;stroke-opacity:1;paint-order:stroke markers fill;color-rendering:auto;image-rendering:auto;shape-rendering:auto;text-rendering:auto;enable-background:accumulate;stop-color:#000000;stop-opacity:1" />
    <path
       id="path1442"
       d="m 16.662782,56.520618 c -1.044387,-2.125417 -1.949939,-9.412443 -1.583666,-12.744067 0.921588,-8.382934 4.719567,-13.71902 11.512248,-16.174365 4.350353,-1.572527 8.714442,-1.945464 17.080698,-1.459661 4.054892,0.235947 7.764428,0.271931 8.243362,0.0812 0.72466,-0.28875 0.935747,-1.015397 1.257743,-4.330155 0.235071,-2.419877 0.606929,-4.091266 0.947418,-4.258577 0.328239,-0.161413 3.597438,3.415091 7.889387,8.630693 l 7.32894,8.906082 -8.906082,7.328924 c -5.215586,4.291933 -9.112053,7.172221 -9.403087,6.950761 -0.299279,-0.227702 -0.349876,-1.922418 -0.127197,-4.26022 0.20364,-2.135116 0.198915,-4.221545 -0.01095,-4.636474 -0.42111,-0.836665 -5.732226,-1.502123 -13.242824,-1.659218 -11.20962,-0.234492 -17.065116,3.626976 -19.142798,12.623895 -0.897447,3.886188 -1.538264,5.62396 -1.844255,5.001245 z"
       style="color:#000000;font-style:normal;font-variant:normal;font-weight:normal;font-stretch:normal;font-size:medium;line-height:normal;font-family:sans-serif;font-variant-ligatures:normal;font-variant-position:normal;font-variant-caps:normal;font-variant-numeric:normal;font-variant-alternates:normal;font-variant-east-asian:normal;font-feature-settings:normal;font-variation-settings:normal;text-indent:0;text-align:start;text-decoration:none;text-decoration-line:none;text-decoration-style:solid;text-decoration-color:#000000;letter-spacing:normal;word-spacing:normal;text-transform:none;writing-mode:lr-tb;direction:ltr;text-orientation:mixed;dominant-baseline:auto;baseline-shift:baseline;text-anchor:start;white-space:normal;shape-padding:0;shape-margin:0;inline-size:0;clip-rule:nonzero;display:inline;overflow:visible;visibility:visible;isolation:auto;mix-blend-mode:normal;color-interpolation:sRGB;color-interpolation-filters:linearRGB;solid-color:#000000;solid-opacity:1;vector-effect:none;fill:#f8c300;fill-opacity:1;fill-rule:nonzero;stroke:none;stroke-width:5.29167;stroke-linecap:butt;stroke-linejoin:miter;stroke-miterlimit:4;stroke-dasharray:none;stroke-dashoffset:0;stroke-opacity:1;paint-order:stroke markers fill;color-rendering:auto;image-rendering:auto;shape-rendering:auto;text-rendering:auto;enable-background:accumulate;stop-color:#000000;stop-opacity:1" />
  </g>
  <path
     d="m 21.87103,109.82593 c 0.003,2.26162 -1.74576,3.77703 -4.00704,3.73721 L 0,113.56312 0.0554,72.650148 l 21.7772,-0.0485 z"
     style="opacity:1;fill:#f8c300;fill-opacity:1;stroke:none;stroke-width:0;stroke-linecap:round;stroke-linejoin:round;stroke-miterlimit:4;stroke-dasharray:none;stroke-dashoffset:0;stroke-opacity:1"
     id="rect828" />
  <g
     style="opacity:1"
     id="g1444">
    <path
       id="path1446"
       d="m 65.630859,55.208984 c -1.874142,-0.201455 -3.979434,-0.198032 -6.363281,0.01172 -15.228566,1.33993 -24.725543,9.600543 -28.03125,12.953125 -0.285889,-0.0094 -0.262387,-0.01834 -0.585937,-0.02344 -1.437586,-0.02265 -3.043385,-0.0609 -4.820313,0.304687 a 4.2337584,4.2337584 0 0 0 -3.380859,4.103516 l -0.384766,38.576178 a 4.2337584,4.2337584 0 0 0 4.042969,4.27148 l 2.414062,0.10937 c 1.150668,0.96807 3.221711,2.59948 6.087891,3.77344 2.601581,1.06561 8.498048,3.39213 18.458984,4.48828 10.122413,1.11395 25.87488,0.76869 31.392579,0.43164 3.078724,-0.18807 5.91132,-0.8782 8.101562,-2.87109 2.190242,-1.99289 3.042334,-4.88371 3.1875,-7.5957 0.04875,-0.91071 -0.161105,-1.79809 -0.425781,-2.64453 0.820454,-0.56902 1.690107,-1.11615 2.226562,-1.84766 1.544546,-2.10613 1.973969,-4.35156 1.9375,-6.30273 -0.02566,-1.37197 -0.573379,-2.974618 -1.453125,-4.537116 1.752096,-1.261711 2.941734,-3.0995 3.505864,-5.021484 0.66524,-2.266476 0.55263,-4.881564 -0.5918,-7.253906 0.39984,-0.236774 0.8048,-0.436142 1.19336,-0.753907 2.5655,-2.098057 3.52783,-5.758216 3.16797,-9.539062 -0.22353,-2.348549 -1.70781,-4.026204 -3.07617,-5.041016 -1.36837,-1.014812 -2.835006,-1.648431 -4.42188,-2.201172 -3.173748,-1.105481 -6.877917,-1.79044 -10.535156,-2.300781 -3.644311,-0.508537 -7.231643,-0.8173 -9.919922,-1 -0.106027,-0.987528 -0.329657,-2.045792 -0.785156,-3.136719 -0.945031,-2.26336 -3.02889,-4.506462 -5.958985,-5.732421 -1.465047,-0.61298 -3.108279,-1.019248 -4.982422,-1.220704 z m -0.925781,8.431641 c 1.205833,0.129242 2.068741,0.360332 2.640625,0.599609 1.143768,0.478556 1.249358,0.793802 1.412109,1.183594 0.325504,0.779585 -0.0078,2.394531 -0.0078,2.394531 a 4.2337584,4.2337584 0 0 0 3.833984,5.703125 c 0,0 6.791187,0.222946 13.521485,1.16211 3.365149,0.469581 6.720586,1.143403 8.921875,1.910156 0.925669,0.322429 1.458864,0.627109 1.818359,0.847656 -0.03984,0.555559 -0.06823,1.391403 -0.0625,1.386719 0.009,-0.0074 -0.9585,0.408181 -2.900391,0.474609 -3.658601,0.125187 -17.054687,-0.716797 -17.054687,-0.716796 a 4.2337584,4.2337584 0 0 0 -2.6875,7.707031 c 0,0 1.094011,0.666489 2.292969,1.046875 1.198957,0.380386 2.869484,0.734089 5.171875,0.898437 2.336264,0.16676 5.279656,0.158487 7.80664,0.453125 2.526985,0.294639 4.200322,1.377369 3.841797,0.908203 a 4.2337584,4.2337584 0 0 0 0.002,0 c 0.232701,0.304502 0.319205,0.862417 0.160157,1.404297 -0.159049,0.54188 -0.441377,0.587708 -0.140625,0.515625 -0.07186,0.01722 -1.620703,0.227975 -3.330079,0.335938 -1.709375,0.107962 -3.77063,0.187257 -5.740234,0.24414 -3.939208,0.113767 -7.509766,0.136719 -7.509766,0.136719 a 4.2337584,4.2337584 0 0 0 -1.064453,8.324222 c 0,0 4.233238,1.07721 11.392579,0.9375 2.613886,-0.051 3.402121,0.54837 3.671874,0.80468 0.269754,0.25632 0.323378,0.54889 0.328126,0.80274 0.0065,0.34942 -0.163577,0.94963 -0.300782,1.13672 -0.137204,0.18709 -0.0064,0.31199 -1.041015,0.33398 -2.166152,0.0461 -3.304074,0.088 -3.962891,0.12305 -0.329408,0.0175 -0.533297,0.0327 -0.742188,0.0547 -0.104445,0.011 -0.207002,0.022 -0.378906,0.0527 -0.08595,0.0154 -0.18781,0.0345 -0.345703,0.0762 -0.157893,0.0416 -0.755859,0.27735 -0.755859,0.27735 a 4.2337584,4.2337584 0 0 0 1.609375,8.04492 c 0,0 1.078659,0.10531 1.876953,0.41406 0.151895,0.0588 0.114402,0.0525 0.207031,0.10547 -0.103498,0.69964 -0.233174,1.26499 -0.326172,1.34961 -0.123013,0.11193 -0.836773,0.55646 -2.917969,0.68359 -4.802161,0.29334 -21.037951,0.58418 -29.949218,-0.39648 -9.072663,-0.99841 -13.653255,-2.87418 -16.177735,-3.90821 -1.23581,-0.50617 -4.988281,-3.3457 -4.988281,-3.3457 A 4.2337584,4.2337584 0 0 0 30.30084,107.1211 l 0.271485,0.0117 0.304687,-30.503904 c 0.914644,0.02606 1.798828,0.07031 1.798828,0.07031 a 4.2337584,4.2337584 0 0 0 3.572266,-1.548828 c 0,0 8.190026,-10.125974 23.761719,-11.496094 1.940188,-0.170714 3.48948,-0.142914 4.695312,-0.01367 z"
       style="color:#000000;font-style:normal;font-variant:normal;font-weight:normal;font-stretch:normal;font-size:medium;line-height:normal;font-family:sans-serif;font-variant-ligatures:normal;font-variant-position:normal;font-variant-caps:normal;font-variant-numeric:normal;font-variant-alternates:normal;font-variant-east-asian:normal;font-feature-settings:normal;font-variation-settings:normal;text-indent:0;text-align:start;text-decoration:none;text-decoration-line:none;text-decoration-style:solid;text-decoration-color:#000000;letter-spacing:normal;word-spacing:normal;text-transform:none;writing-mode:lr-tb;direction:ltr;text-orientation:mixed;dominant-baseline:auto;baseline-shift:baseline;text-anchor:start;white-space:normal;shape-padding:0;shape-margin:0;inline-size:0;clip-rule:nonzero;display:inline;overflow:visible;visibility:visible;isolation:auto;mix-blend-mode:normal;color-interpolation:sRGB;color-interpolation-filters:linearRGB;solid-color:#000000;solid-opacity:1;vector-effect:none;fill:#ffffff;fill-opacity:1;fill-rule:nonzero;stroke:none;stroke-width:8.46667;stroke-linecap:round;stroke-linejoin:round;stroke-miterlimit:4;stroke-dasharray:none;stroke-dashoffset:0;stroke-opacity:1;paint-order:stroke markers fill;color-rendering:auto;image-rendering:auto;shape-rendering:auto;text-rendering:auto;enable-background:accumulate;stop-color:#000000;stop-opacity:1" />
    <path
       id="path1448"
       d="m 26.68236,72.601648 c 2.02537,-0.4167 6.28272,-0.12531 6.28272,-0.12531 0,0 9.37835,-11.51644 26.67448,-13.03829 17.29614,-1.52186 13.0792,9.85168 13.0792,9.85168 0,0 27.8009,0.88691 28.37821,6.95247 0.57732,6.06557 -2.57995,7.13736 -7.06864,7.29091 -4.48869,0.15359 -17.48505,-0.72427 -17.48505,-0.72427 0,0 1.3314,0.91824 5.36451,1.20613 4.03312,0.28788 12.37962,-0.0371 14.71072,3.01338 2.331118,3.0504 0.74842,7.86318 -2.35627,8.6073 -3.1047,0.74412 -17.53995,0.83379 -17.53995,0.83379 0,0 3.47489,0.92714 10.21805,0.79555 6.74315,-0.13163 8.27262,3.461282 8.31565,5.761862 0.043,2.30059 -1.20001,5.6912 -5.48399,5.78227 -4.284,0.0911 -4.44383,0.16787 -4.44383,0.16787 0,0 6.41851,0.33911 6.19368,4.53881 -0.2248,4.19972 -2.15895,6.15189 -7.31887,6.4671 -5.15993,0.31519 -21.15376,0.63438 -30.6706,-0.41292 -9.5168,-1.04728 -14.75502,-3.14868 -17.31805,-4.1985 -2.56306,-1.04981 -6.1052,-4.02173 -6.1052,-4.02173 l -3.81061,-0.17224 z"
       style="color:#000000;font-style:normal;font-variant:normal;font-weight:normal;font-stretch:normal;font-size:medium;line-height:normal;font-family:sans-serif;font-variant-ligatures:normal;font-variant-position:normal;font-variant-caps:normal;font-variant-numeric:normal;font-variant-alternates:normal;font-variant-east-asian:normal;font-feature-settings:normal;font-variation-settings:normal;text-indent:0;text-align:start;text-decoration:none;text-decoration-line:none;text-decoration-style:solid;text-decoration-color:#000000;letter-spacing:normal;word-spacing:normal;text-transform:none;writing-mode:lr-tb;direction:ltr;text-orientation:mixed;dominant-baseline:auto;baseline-shift:baseline;text-anchor:start;white-space:normal;shape-padding:0;shape-margin:0;inline-size:0;clip-rule:nonzero;display:inline;overflow:visible;visibility:visible;isolation:auto;mix-blend-mode:normal;color-interpolation:sRGB;color-interpolation-filters:linearRGB;solid-color:#000000;solid-opacity:1;vector-effect:none;fill:#f8c300;fill-opacity:1;fill-rule:nonzero;stroke:none;stroke-width:8.46667;stroke-linecap:round;stroke-linejoin:round;stroke-miterlimit:4;stroke-dasharray:none;stroke-dashoffset:0;stroke-opacity:1;paint-order:stroke markers fill;color-rendering:auto;image-rendering:auto;shape-rendering:auto;text-rendering:auto;enable-background:accumulate;stop-color:#000000;stop-opacity:1" />
  </g>
  <circle
     r="2.2422647"
     cy="106.6517"
     cx="13.186216"
     id="path2882"
     style="fill:#ffffff;fill-opacity:1;stroke:#ffffff;stroke-width:2.40243;stroke-linecap:round;stroke-linejoin:round;stroke-miterlimit:4;stroke-dasharray:none;stroke-opacity:1;paint-order:stroke markers fill" />
</svg>
