<?xml version="1.0" encoding="UTF-8" standalone="no"?>
<svg
   xmlns:dc="http://purl.org/dc/elements/1.1/"
   xmlns:cc="http://creativecommons.org/ns#"
   xmlns:rdf="http://www.w3.org/1999/02/22-rdf-syntax-ns#"
   xmlns:svg="http://www.w3.org/2000/svg"
   xmlns="http://www.w3.org/2000/svg"
   id="svg8"
   version="1.1"
   viewBox="0 0 174.2979 118.03131"
   height="446.10254"
   width="658.76367">
  <defs
     id="defs2" />
  <metadata
     id="metadata5">
    <rdf:RDF>
      <cc:Work
         rdf:about="">
        <dc:format>image/svg+xml</dc:format>
        <dc:type
           rdf:resource="http://purl.org/dc/dcmitype/StillImage" />
        <dc:title></dc:title>
      </cc:Work>
    </rdf:RDF>
  </metadata>
  <path
     id="path1403-3-5"
     d="m 43.122327,9.8367253 c 0,-4.3502705 4.40561,-7.8523503 9.878303,-7.8523503 h 109.43458 c 5.47271,0 9.87832,3.5020798 9.87832,7.8523503 V 54.682682 H 43.146137 c -0.01937,-0.03929 -0.02418,-38.314372 -0.02391,-44.8459567 z"
     style="opacity:1;fill:#ffffff;fill-opacity:1;stroke:#03428b;stroke-width:3.96875;stroke-linecap:round;stroke-linejoin:round;stroke-miterlimit:4;stroke-dasharray:none;stroke-dashoffset:0;stroke-opacity:1" />
  <path
     id="path1403-3"
     d="m 46.346971,62.092368 c -0.0014,-0.05647 -0.02267,-0.108677 -0.02267,-0.16564 V 12.075403 c 0,-3.8237837 4.187226,-6.9019819 9.388638,-6.9019819 H 159.72286 c 5.20142,0 9.38866,3.0781982 9.38866,6.9019819 V 51.49365 H 46.346902 Z"
     style="opacity:1;fill:#ffffff;fill-opacity:1;stroke:none;stroke-width:0;stroke-linecap:round;stroke-linejoin:round;stroke-miterlimit:4;stroke-dasharray:none;stroke-dashoffset:0;stroke-opacity:1" />
  <path
     id="path1403"
     d="m 51.718694,21.924922 c -0.0014,0.05482 -0.02061,0.10538 -0.02061,0.16046 V 70.36559 c 0,3.703235 3.85085,6.683871 8.634219,6.683871 H 155.9825 c 4.78336,0 8.63422,-2.980636 8.63422,-6.683871 V 32.189984 h -26.60627 v 4.592243 H 124.43681 V 32.189984 H 92.69804 v 4.592243 H 79.125093 V 32.189984 H 51.718667 Z"
     style="opacity:1;fill:#03428b;fill-opacity:1;stroke:none;stroke-width:0;stroke-linecap:round;stroke-linejoin:round;stroke-miterlimit:4;stroke-dasharray:none;stroke-dashoffset:0;stroke-opacity:1" />
  <path
     id="rect828"
     style="opacity:1;fill:#03428b;fill-opacity:1;stroke:none;stroke-width:0;stroke-linecap:round;stroke-linejoin:round;stroke-miterlimit:4;stroke-dasharray:none;stroke-dashoffset:0;stroke-opacity:1"
     d="m 21.871023,103.31951 c 0.0029,2.26162 -1.745757,3.77703 -4.007035,3.73721 L 0,107.0567 0.055384,66.143736 21.832585,66.095226 Z" />
  <path
     id="path1320-6"
     d="m 155.5006,79.261967 c 0.97413,1.982428 1.81877,8.779236 1.47714,11.886726 -0.85959,7.81901 -4.40207,12.796137 -10.7378,15.086307 -4.05769,1.46671 -8.12818,1.81458 -15.93167,1.36146 -3.78208,-0.22008 -7.24208,-0.25364 -7.68879,-0.0757 -0.6759,0.26931 -0.87277,0.94709 -1.17313,4.03882 -0.21926,2.25712 -0.56609,3.81606 -0.88369,3.97211 -0.30615,0.1506 -3.35542,-3.18535 -7.35866,-8.05007 l -6.83589,-8.306967 8.30695,-6.835888 c 4.86472,-4.003204 8.49907,-6.689725 8.77053,-6.483156 0.27914,0.212394 0.32633,1.793075 0.1187,3.973609 -0.18991,1.991497 -0.18554,3.937557 0.01,4.324591 0.3928,0.780362 5.34661,1.401049 12.35195,1.547599 10.45554,0.218697 15.91712,-3.383005 17.85503,-11.774645 0.83709,-3.624771 1.43478,-5.245638 1.72019,-4.664814 z"
     style="display:inline;fill:#03428b;fill-opacity:1;stroke-width:0.444065" />
  <circle
     style="fill:#ffffff;fill-opacity:1;stroke:#ffffff;stroke-width:2.40243;stroke-linecap:round;stroke-linejoin:round;stroke-miterlimit:4;stroke-dasharray:none;stroke-opacity:1;paint-order:stroke markers fill"
     id="path2882"
     cx="13.18621"
     cy="100.14529"
     r="2.2422647" />
  <g
     style="display:inline;opacity:1"
     id="g860">
    <path
       id="path862"
       d="m 65.630859,48.701172 c -1.874142,-0.201455 -3.979434,-0.19608 -6.363281,0.01367 -15.22392,1.339519 -24.720629,9.596446 -28.029297,12.951172 -0.286673,-0.0094 -0.263273,-0.01832 -0.58789,-0.02344 -1.437585,-0.02265 -3.043385,-0.05894 -4.820313,0.306641 a 4.2337584,4.2337584 0 0 0 -3.380859,4.103515 l -0.384766,38.57618 a 4.2337584,4.2337584 0 0 0 4.042969,4.27148 l 2.417969,0.10938 c 1.15241,0.96918 3.220807,2.60069 6.083984,3.77343 2.601582,1.06561 8.49805,3.39213 18.458984,4.48828 10.122412,1.11395 25.874872,0.76674 31.392579,0.42969 3.078724,-0.18807 5.91132,-0.8782 8.101562,-2.87109 2.190242,-1.99289 3.042334,-4.88175 3.1875,-7.59375 0.04879,-0.91136 -0.160726,-1.79952 -0.425781,-2.64649 0.820314,-0.56896 1.690178,-1.11429 2.226562,-1.8457 1.544546,-2.10613 1.973969,-4.351567 1.9375,-6.302738 -0.02565,-1.371427 -0.572196,-2.975161 -1.451172,-4.537109 1.751547,-1.261708 2.939881,-3.099854 3.503911,-5.021485 0.66524,-2.266475 0.55263,-4.881563 -0.5918,-7.253906 0.39984,-0.236774 0.8048,-0.436142 1.19336,-0.753906 2.5655,-2.098056 3.52783,-5.760169 3.16797,-9.541016 -0.22353,-2.348549 -1.70781,-4.024249 -3.07617,-5.039062 -1.36837,-1.014813 -2.835005,-1.648431 -4.42188,-2.201172 -3.173749,-1.105481 -6.877916,-1.790441 -10.535156,-2.300781 -3.644312,-0.508537 -7.231642,-0.817301 -9.919922,-1 -0.105932,-0.987999 -0.3294,-2.045176 -0.785156,-3.136719 -0.94503,-2.263361 -3.02889,-4.506462 -5.958985,-5.732422 -1.465047,-0.61298 -3.108279,-1.021201 -4.982422,-1.222656 z m -0.925781,8.433594 c 1.205832,0.129241 2.068742,0.360331 2.640625,0.599609 1.143767,0.478555 1.249358,0.793802 1.412109,1.183594 C 69.083315,59.697552 68.75,61.3125 68.75,61.3125 a 4.2337584,4.2337584 0 0 0 3.833984,5.701172 c 0,0 6.791185,0.224899 13.521485,1.164062 3.365149,0.469582 6.720586,1.143403 8.921875,1.910157 0.925669,0.322429 1.458864,0.627109 1.818359,0.847656 -0.03991,0.554661 -0.06822,1.389445 -0.0625,1.384765 0.009,-0.0074 -0.958502,0.408182 -2.900391,0.47461 -3.658583,0.125187 -17.054687,-0.716797 -17.054687,-0.716797 a 4.2337584,4.2337584 0 0 0 -2.6875,7.708984 c 0,0 1.09401,0.664534 2.292969,1.044922 1.198959,0.380389 2.869482,0.734087 5.171875,0.898438 2.336257,0.166758 5.277704,0.158486 7.804687,0.453125 2.526984,0.294638 4.202276,1.377369 3.84375,0.908203 a 4.2337584,4.2337584 0 0 0 0.002,0 c 0.232703,0.304505 0.319205,0.864371 0.160157,1.40625 -0.159049,0.541878 -0.441369,0.585753 -0.140625,0.513672 -0.07185,0.01722 -1.620704,0.227975 -3.330079,0.335937 -1.709374,0.107963 -3.77063,0.18921 -5.740234,0.246094 -3.939207,0.113767 -7.509765,0.136719 -7.509766,0.136719 a 4.2337584,4.2337584 0 0 0 -1.064453,8.322265 c 0,0 4.233249,1.077215 11.392579,0.9375 2.613892,-0.05102 3.402119,0.550321 3.671874,0.806641 0.269756,0.25632 0.323378,0.548892 0.328126,0.802734 0.0065,0.349419 -0.163578,0.949629 -0.300782,1.136719 -0.137204,0.18709 -0.0064,0.311991 -1.041015,0.333984 -2.166157,0.04606 -3.304073,0.08804 -3.962891,0.123047 -0.329409,0.0175 -0.533297,0.03075 -0.742188,0.05273 -0.104445,0.01099 -0.207002,0.02396 -0.378906,0.05469 -0.08595,0.01537 -0.18781,0.03453 -0.345703,0.07617 -0.157893,0.04164 -0.755859,0.277344 -0.755859,0.277344 a 4.2337584,4.2337584 0 0 0 1.609375,8.042977 c 0,0 1.078656,0.10726 1.876953,0.41601 0.151895,0.0588 0.114401,0.0525 0.207031,0.10547 -0.103498,0.69965 -0.233174,1.26499 -0.326172,1.34961 -0.123012,0.11193 -0.836773,0.55646 -2.917969,0.68359 -4.802173,0.29334 -21.037952,0.58418 -29.949218,-0.39648 -9.07266,-0.99841 -13.653248,-2.87417 -16.177735,-3.9082 -1.235829,-0.5062 -4.988281,-3.34766 -4.988281,-3.34766 a 4.2337584,4.2337584 0 0 0 -2.529297,-0.98438 l 0.271485,0.0117 L 30.877,70.123023 c 0.914644,0.02606 1.798828,0.07031 1.798828,0.07031 a 4.2337584,4.2337584 0 0 0 3.572266,-1.550781 c 0,0 8.190021,-10.124021 23.761719,-11.49414 1.940188,-0.170715 3.48948,-0.142914 4.695312,-0.01367 z"
       style="color:#000000;font-style:normal;font-variant:normal;font-weight:normal;font-stretch:normal;font-size:medium;line-height:normal;font-family:sans-serif;font-variant-ligatures:normal;font-variant-position:normal;font-variant-caps:normal;font-variant-numeric:normal;font-variant-alternates:normal;font-variant-east-asian:normal;font-feature-settings:normal;font-variation-settings:normal;text-indent:0;text-align:start;text-decoration:none;text-decoration-line:none;text-decoration-style:solid;text-decoration-color:#000000;letter-spacing:normal;word-spacing:normal;text-transform:none;writing-mode:lr-tb;direction:ltr;text-orientation:mixed;dominant-baseline:auto;baseline-shift:baseline;text-anchor:start;white-space:normal;shape-padding:0;shape-margin:0;inline-size:0;clip-rule:nonzero;display:inline;overflow:visible;visibility:visible;isolation:auto;mix-blend-mode:normal;color-interpolation:sRGB;color-interpolation-filters:linearRGB;solid-color:#000000;solid-opacity:1;vector-effect:none;fill:#ffffff;fill-opacity:1;fill-rule:nonzero;stroke:none;stroke-width:8.46667;stroke-linecap:round;stroke-linejoin:round;stroke-miterlimit:4;stroke-dasharray:none;stroke-dashoffset:0;stroke-opacity:1;paint-order:stroke markers fill;color-rendering:auto;image-rendering:auto;shape-rendering:auto;text-rendering:auto;enable-background:accumulate;stop-color:#000000;stop-opacity:1" />
    <path
       id="path864"
       d="m 26.682363,66.095228 c 2.025363,-0.416696 6.282714,-0.125301 6.282714,-0.125301 0,0 9.378348,-11.516442 26.674483,-13.038291 17.29614,-1.521864 13.079194,9.851677 13.079194,9.851677 0,0 27.800906,0.886907 28.378216,6.952472 0.57732,6.065567 -2.57996,7.137363 -7.06865,7.290911 -4.48868,0.153591 -17.485042,-0.724276 -17.485042,-0.724276 0,0 1.331402,0.918245 5.364512,1.206138 4.03311,0.287877 12.37961,-0.0371 14.71071,3.013377 2.33112,3.050402 0.74842,7.863174 -2.35627,8.607301 -3.10469,0.744117 -17.53994,0.833792 -17.53994,0.833792 0,0 3.47489,0.927135 10.21804,0.795542 6.74316,-0.131623 8.27263,3.461287 8.31566,5.761863 0.043,2.300589 -1.20001,5.691197 -5.48399,5.782267 -4.28401,0.0911 -4.44384,0.16787 -4.44384,0.16787 0,0 6.41851,0.33911 6.19369,4.53881 -0.2248,4.19973 -2.15895,6.1519 -7.31887,6.46711 -5.15994,0.31519 -21.153763,0.63438 -30.670602,-0.41292 -9.516797,-1.04728 -14.755016,-3.14868 -17.31805,-4.1985 -2.56306,-1.04982 -6.105204,-4.02174 -6.105204,-4.02174 l -3.810607,-0.17224 z"
       style="color:#000000;font-style:normal;font-variant:normal;font-weight:normal;font-stretch:normal;font-size:medium;line-height:normal;font-family:sans-serif;font-variant-ligatures:normal;font-variant-position:normal;font-variant-caps:normal;font-variant-numeric:normal;font-variant-alternates:normal;font-variant-east-asian:normal;font-feature-settings:normal;font-variation-settings:normal;text-indent:0;text-align:start;text-decoration:none;text-decoration-line:none;text-decoration-style:solid;text-decoration-color:#000000;letter-spacing:normal;word-spacing:normal;text-transform:none;writing-mode:lr-tb;direction:ltr;text-orientation:mixed;dominant-baseline:auto;baseline-shift:baseline;text-anchor:start;white-space:normal;shape-padding:0;shape-margin:0;inline-size:0;clip-rule:nonzero;display:inline;overflow:visible;visibility:visible;isolation:auto;mix-blend-mode:normal;color-interpolation:sRGB;color-interpolation-filters:linearRGB;solid-color:#000000;solid-opacity:1;vector-effect:none;fill:#03428b;fill-opacity:1;fill-rule:nonzero;stroke:none;stroke-width:8.46667;stroke-linecap:round;stroke-linejoin:round;stroke-miterlimit:4;stroke-dasharray:none;stroke-dashoffset:0;stroke-opacity:1;paint-order:stroke markers fill;color-rendering:auto;image-rendering:auto;shape-rendering:auto;text-rendering:auto;enable-background:accumulate;stop-color:#000000;stop-opacity:1" />
  </g>
</svg>
